<mxfile host="app.diagrams.net" modified="2024-03-21T20:06:07.670Z" agent="Mozilla/5.0 (Windows NT 10.0; Win64; x64) AppleWebKit/537.36 (KHTML, like Gecko) Chrome/122.0.0.0 Safari/537.36" etag="LOqust5Mm1F4Or-skPa9" version="24.0.7" type="device">
  <diagram name="Page-1" id="c7488fd3-1785-93aa-aadb-54a6760d102a">
    <mxGraphModel dx="683" dy="351" grid="1" gridSize="10" guides="1" tooltips="1" connect="1" arrows="1" fold="1" page="1" pageScale="1" pageWidth="1100" pageHeight="850" background="none" math="0" shadow="0">
      <root>
        <mxCell id="0" />
        <mxCell id="1" parent="0" />
        <mxCell id="2b4e8129b02d487f-1" value="Processo de Investimento: AS IS" style="swimlane;html=1;childLayout=stackLayout;horizontal=1;startSize=20;horizontalStack=0;rounded=0;shadow=0;labelBackgroundColor=none;strokeWidth=1;fontFamily=Verdana;fontSize=8;align=center;" parent="1" vertex="1">
          <mxGeometry x="20" y="20" width="1060" height="380" as="geometry" />
        </mxCell>
        <mxCell id="2b4e8129b02d487f-2" value="Investidor" style="swimlane;html=1;startSize=30;horizontal=0;" parent="2b4e8129b02d487f-1" vertex="1">
          <mxGeometry y="20" width="1060" height="120" as="geometry" />
        </mxCell>
        <mxCell id="a6bKHoMYyFH4JnXPZ5UI-1" value="" style="points=[[0.145,0.145,0],[0.5,0,0],[0.855,0.145,0],[1,0.5,0],[0.855,0.855,0],[0.5,1,0],[0.145,0.855,0],[0,0.5,0]];shape=mxgraph.bpmn.event;html=1;verticalLabelPosition=bottom;labelBackgroundColor=#ffffff;verticalAlign=top;align=center;perimeter=ellipsePerimeter;outlineConnect=0;aspect=fixed;outline=standard;symbol=general;fillColor=#d5e8d4;strokeColor=#82b366;" vertex="1" parent="2b4e8129b02d487f-2">
          <mxGeometry x="60" y="50.63" width="18.75" height="18.75" as="geometry" />
        </mxCell>
        <mxCell id="a6bKHoMYyFH4JnXPZ5UI-2" value="" style="points=[[0.25,0,0],[0.5,0,0],[0.75,0,0],[1,0.25,0],[1,0.5,0],[1,0.75,0],[0.75,1,0],[0.5,1,0],[0.25,1,0],[0,0.75,0],[0,0.5,0],[0,0.25,0]];shape=mxgraph.bpmn.task;whiteSpace=wrap;rectStyle=rounded;size=10;html=1;container=1;expand=0;collapsible=0;taskMarker=abstract;isLoopSub=1;align=center;fillColor=#dae8fc;strokeColor=#6c8ebf;" vertex="1" parent="2b4e8129b02d487f-2">
          <mxGeometry x="100" y="37.5" width="80" height="45" as="geometry" />
        </mxCell>
        <mxCell id="a6bKHoMYyFH4JnXPZ5UI-4" value="&lt;span style=&quot;font-size: 8px;&quot;&gt;Solicita auxílio em investimentos&lt;/span&gt;" style="text;html=1;align=center;verticalAlign=middle;whiteSpace=wrap;rounded=0;" vertex="1" parent="a6bKHoMYyFH4JnXPZ5UI-2">
          <mxGeometry x="5" width="70" height="30" as="geometry" />
        </mxCell>
        <mxCell id="a6bKHoMYyFH4JnXPZ5UI-5" value="" style="edgeStyle=elbowEdgeStyle;fontSize=12;html=1;endArrow=blockThin;endFill=1;rounded=0;exitX=1;exitY=0.5;exitDx=0;exitDy=0;exitPerimeter=0;entryX=0;entryY=0.5;entryDx=0;entryDy=0;entryPerimeter=0;" edge="1" parent="2b4e8129b02d487f-2" source="a6bKHoMYyFH4JnXPZ5UI-1" target="a6bKHoMYyFH4JnXPZ5UI-2">
          <mxGeometry width="160" relative="1" as="geometry">
            <mxPoint x="250" y="110" as="sourcePoint" />
            <mxPoint x="410" y="110" as="targetPoint" />
          </mxGeometry>
        </mxCell>
        <mxCell id="a6bKHoMYyFH4JnXPZ5UI-9" value="" style="points=[[0.25,0,0],[0.5,0,0],[0.75,0,0],[1,0.25,0],[1,0.5,0],[1,0.75,0],[0.75,1,0],[0.5,1,0],[0.25,1,0],[0,0.75,0],[0,0.5,0],[0,0.25,0]];shape=mxgraph.bpmn.task;whiteSpace=wrap;rectStyle=rounded;size=10;html=1;container=1;expand=0;collapsible=0;taskMarker=abstract;isLoopSub=1;align=center;fillColor=#dae8fc;strokeColor=#6c8ebf;" vertex="1" parent="2b4e8129b02d487f-2">
          <mxGeometry x="260" y="37.5" width="80" height="45" as="geometry" />
        </mxCell>
        <mxCell id="a6bKHoMYyFH4JnXPZ5UI-10" value="&lt;font style=&quot;font-size: 7px;&quot;&gt;Informar objetivos e informações financeiras&lt;/font&gt;" style="text;html=1;align=center;verticalAlign=middle;whiteSpace=wrap;rounded=0;" vertex="1" parent="a6bKHoMYyFH4JnXPZ5UI-9">
          <mxGeometry width="80" height="30" as="geometry" />
        </mxCell>
        <mxCell id="a6bKHoMYyFH4JnXPZ5UI-27" value="" style="points=[[0.25,0,0],[0.5,0,0],[0.75,0,0],[1,0.25,0],[1,0.5,0],[1,0.75,0],[0.75,1,0],[0.5,1,0],[0.25,1,0],[0,0.75,0],[0,0.5,0],[0,0.25,0]];shape=mxgraph.bpmn.task;whiteSpace=wrap;rectStyle=rounded;size=10;html=1;container=1;expand=0;collapsible=0;taskMarker=abstract;isLoopSub=1;align=center;fillColor=#dae8fc;strokeColor=#6c8ebf;" vertex="1" parent="2b4e8129b02d487f-2">
          <mxGeometry x="540" y="37.5" width="80" height="45" as="geometry" />
        </mxCell>
        <mxCell id="a6bKHoMYyFH4JnXPZ5UI-28" value="&lt;span style=&quot;font-size: 7px;&quot;&gt;Escolher qual método será seguido&lt;/span&gt;" style="text;html=1;align=center;verticalAlign=middle;whiteSpace=wrap;rounded=0;" vertex="1" parent="a6bKHoMYyFH4JnXPZ5UI-27">
          <mxGeometry x="2.5" width="75" height="30" as="geometry" />
        </mxCell>
        <mxCell id="a6bKHoMYyFH4JnXPZ5UI-47" value="" style="points=[[0.145,0.145,0],[0.5,0,0],[0.855,0.145,0],[1,0.5,0],[0.855,0.855,0],[0.5,1,0],[0.145,0.855,0],[0,0.5,0]];shape=mxgraph.bpmn.event;html=1;verticalLabelPosition=bottom;labelBackgroundColor=#ffffff;verticalAlign=top;align=center;perimeter=ellipsePerimeter;outlineConnect=0;aspect=fixed;outline=end;symbol=terminate2;fillColor=#f8cecc;strokeColor=#b85450;" vertex="1" parent="2b4e8129b02d487f-2">
          <mxGeometry x="986" y="47.50000000000001" width="25" height="25" as="geometry" />
        </mxCell>
        <mxCell id="2b4e8129b02d487f-3" value="Consultor&lt;div&gt;Financeiro&lt;/div&gt;" style="swimlane;html=1;startSize=30;horizontal=0;" parent="2b4e8129b02d487f-1" vertex="1">
          <mxGeometry y="140" width="1060" height="120" as="geometry" />
        </mxCell>
        <mxCell id="a6bKHoMYyFH4JnXPZ5UI-12" value="" style="points=[[0.25,0,0],[0.5,0,0],[0.75,0,0],[1,0.25,0],[1,0.5,0],[1,0.75,0],[0.75,1,0],[0.5,1,0],[0.25,1,0],[0,0.75,0],[0,0.5,0],[0,0.25,0]];shape=mxgraph.bpmn.task;whiteSpace=wrap;rectStyle=rounded;size=10;html=1;container=1;expand=0;collapsible=0;taskMarker=abstract;isLoopSub=1;align=center;fillColor=#dae8fc;strokeColor=#6c8ebf;" vertex="1" parent="2b4e8129b02d487f-3">
          <mxGeometry x="260" y="37.5" width="80" height="45" as="geometry" />
        </mxCell>
        <mxCell id="a6bKHoMYyFH4JnXPZ5UI-13" value="&lt;font style=&quot;font-size: 7px;&quot;&gt;Avaliar situação financeira e objetivos&lt;/font&gt;" style="text;html=1;align=center;verticalAlign=middle;whiteSpace=wrap;rounded=0;" vertex="1" parent="a6bKHoMYyFH4JnXPZ5UI-12">
          <mxGeometry x="2.5" width="75" height="30" as="geometry" />
        </mxCell>
        <mxCell id="a6bKHoMYyFH4JnXPZ5UI-15" value="" style="points=[[0.25,0,0],[0.5,0,0],[0.75,0,0],[1,0.25,0],[1,0.5,0],[1,0.75,0],[0.75,1,0],[0.5,1,0],[0.25,1,0],[0,0.75,0],[0,0.5,0],[0,0.25,0]];shape=mxgraph.bpmn.task;whiteSpace=wrap;rectStyle=rounded;size=10;html=1;container=1;expand=0;collapsible=0;taskMarker=abstract;isLoopSub=1;align=center;fillColor=#dae8fc;strokeColor=#6c8ebf;" vertex="1" parent="2b4e8129b02d487f-3">
          <mxGeometry x="380" y="37.5" width="80" height="45" as="geometry" />
        </mxCell>
        <mxCell id="a6bKHoMYyFH4JnXPZ5UI-16" value="&lt;font style=&quot;font-size: 7px;&quot;&gt;Gerar relatório com as informações recebidas&lt;/font&gt;" style="text;html=1;align=center;verticalAlign=middle;whiteSpace=wrap;rounded=0;" vertex="1" parent="a6bKHoMYyFH4JnXPZ5UI-15">
          <mxGeometry x="2.5" width="75" height="30" as="geometry" />
        </mxCell>
        <mxCell id="a6bKHoMYyFH4JnXPZ5UI-17" value="" style="edgeStyle=elbowEdgeStyle;fontSize=12;html=1;endArrow=blockThin;endFill=1;rounded=0;exitX=1;exitY=0.5;exitDx=0;exitDy=0;exitPerimeter=0;entryX=0;entryY=0.5;entryDx=0;entryDy=0;entryPerimeter=0;" edge="1" parent="2b4e8129b02d487f-3" source="a6bKHoMYyFH4JnXPZ5UI-12" target="a6bKHoMYyFH4JnXPZ5UI-15">
          <mxGeometry width="160" relative="1" as="geometry">
            <mxPoint x="300" y="50" as="sourcePoint" />
            <mxPoint x="460" y="50" as="targetPoint" />
          </mxGeometry>
        </mxCell>
        <mxCell id="a6bKHoMYyFH4JnXPZ5UI-21" value="" style="points=[[0.25,0,0],[0.5,0,0],[0.75,0,0],[1,0.25,0],[1,0.5,0],[1,0.75,0],[0.75,1,0],[0.5,1,0],[0.25,1,0],[0,0.75,0],[0,0.5,0],[0,0.25,0]];shape=mxgraph.bpmn.task;whiteSpace=wrap;rectStyle=rounded;size=10;html=1;container=1;expand=0;collapsible=0;taskMarker=abstract;isLoopSub=1;align=center;fillColor=#dae8fc;strokeColor=#6c8ebf;" vertex="1" parent="2b4e8129b02d487f-3">
          <mxGeometry x="540" y="37.5" width="80" height="45" as="geometry" />
        </mxCell>
        <mxCell id="a6bKHoMYyFH4JnXPZ5UI-22" value="&lt;span style=&quot;font-size: 7px;&quot;&gt;Auxiliar investidor a escolher o portifólio&lt;/span&gt;" style="text;html=1;align=center;verticalAlign=middle;whiteSpace=wrap;rounded=0;" vertex="1" parent="a6bKHoMYyFH4JnXPZ5UI-21">
          <mxGeometry x="2.5" width="75" height="30" as="geometry" />
        </mxCell>
        <mxCell id="a6bKHoMYyFH4JnXPZ5UI-32" value="" style="points=[[0.25,0,0],[0.5,0,0],[0.75,0,0],[1,0.25,0],[1,0.5,0],[1,0.75,0],[0.75,1,0],[0.5,1,0],[0.25,1,0],[0,0.75,0],[0,0.5,0],[0,0.25,0]];shape=mxgraph.bpmn.task;whiteSpace=wrap;rectStyle=rounded;size=10;html=1;container=1;expand=0;collapsible=0;taskMarker=abstract;isLoopSub=1;align=center;fillColor=#dae8fc;strokeColor=#6c8ebf;" vertex="1" parent="2b4e8129b02d487f-3">
          <mxGeometry x="660" y="37.5" width="80" height="45" as="geometry" />
        </mxCell>
        <mxCell id="a6bKHoMYyFH4JnXPZ5UI-33" value="&lt;span style=&quot;font-size: 7px;&quot;&gt;Investir o ativo solicitado&lt;/span&gt;" style="text;html=1;align=center;verticalAlign=middle;whiteSpace=wrap;rounded=0;" vertex="1" parent="a6bKHoMYyFH4JnXPZ5UI-32">
          <mxGeometry x="2.5" width="75" height="30" as="geometry" />
        </mxCell>
        <mxCell id="a6bKHoMYyFH4JnXPZ5UI-36" value="" style="edgeStyle=elbowEdgeStyle;fontSize=12;html=1;endArrow=blockThin;endFill=1;rounded=0;exitX=1;exitY=0.5;exitDx=0;exitDy=0;exitPerimeter=0;entryX=0;entryY=0.5;entryDx=0;entryDy=0;entryPerimeter=0;" edge="1" parent="2b4e8129b02d487f-3" source="a6bKHoMYyFH4JnXPZ5UI-32" target="a6bKHoMYyFH4JnXPZ5UI-37">
          <mxGeometry width="160" relative="1" as="geometry">
            <mxPoint x="630" y="100" as="sourcePoint" />
            <mxPoint x="788" y="60.004999999999995" as="targetPoint" />
          </mxGeometry>
        </mxCell>
        <mxCell id="a6bKHoMYyFH4JnXPZ5UI-37" value="" style="points=[[0.145,0.145,0],[0.5,0,0],[0.855,0.145,0],[1,0.5,0],[0.855,0.855,0],[0.5,1,0],[0.145,0.855,0],[0,0.5,0]];shape=mxgraph.bpmn.event;html=1;verticalLabelPosition=bottom;labelBackgroundColor=#ffffff;verticalAlign=top;align=center;perimeter=ellipsePerimeter;outlineConnect=0;aspect=fixed;outline=standard;symbol=timer;" vertex="1" parent="2b4e8129b02d487f-3">
          <mxGeometry x="788" y="47.5" width="25" height="25" as="geometry" />
        </mxCell>
        <mxCell id="a6bKHoMYyFH4JnXPZ5UI-40" value="&lt;span style=&quot;font-size: 7px;&quot;&gt;Aguardar e acompanhar retorno&lt;/span&gt;" style="text;html=1;align=center;verticalAlign=middle;whiteSpace=wrap;rounded=0;" vertex="1" parent="2b4e8129b02d487f-3">
          <mxGeometry x="763" y="17.5" width="75" height="30" as="geometry" />
        </mxCell>
        <mxCell id="a6bKHoMYyFH4JnXPZ5UI-41" value="" style="edgeStyle=elbowEdgeStyle;fontSize=12;html=1;endArrow=blockThin;endFill=1;rounded=0;exitX=1;exitY=0.5;exitDx=0;exitDy=0;exitPerimeter=0;entryX=0;entryY=0.5;entryDx=0;entryDy=0;entryPerimeter=0;" edge="1" parent="2b4e8129b02d487f-3" source="a6bKHoMYyFH4JnXPZ5UI-37" target="a6bKHoMYyFH4JnXPZ5UI-42">
          <mxGeometry width="160" relative="1" as="geometry">
            <mxPoint x="820" y="59.75999999999999" as="sourcePoint" />
            <mxPoint x="868" y="59.75999999999999" as="targetPoint" />
          </mxGeometry>
        </mxCell>
        <mxCell id="a6bKHoMYyFH4JnXPZ5UI-42" value="" style="points=[[0.25,0,0],[0.5,0,0],[0.75,0,0],[1,0.25,0],[1,0.5,0],[1,0.75,0],[0.75,1,0],[0.5,1,0],[0.25,1,0],[0,0.75,0],[0,0.5,0],[0,0.25,0]];shape=mxgraph.bpmn.task;whiteSpace=wrap;rectStyle=rounded;size=10;html=1;container=1;expand=0;collapsible=0;taskMarker=abstract;isLoopSub=1;align=center;fillColor=#dae8fc;strokeColor=#6c8ebf;" vertex="1" parent="2b4e8129b02d487f-3">
          <mxGeometry x="860" y="37.5" width="80" height="45" as="geometry" />
        </mxCell>
        <mxCell id="a6bKHoMYyFH4JnXPZ5UI-43" value="&lt;span style=&quot;font-size: 7px;&quot;&gt;Gerar relatório resultado&lt;/span&gt;" style="text;html=1;align=center;verticalAlign=middle;whiteSpace=wrap;rounded=0;" vertex="1" parent="a6bKHoMYyFH4JnXPZ5UI-42">
          <mxGeometry x="2.5" width="75" height="30" as="geometry" />
        </mxCell>
        <mxCell id="a6bKHoMYyFH4JnXPZ5UI-51" value="" style="shape=mxgraph.bpmn.data;labelPosition=center;verticalLabelPosition=bottom;align=center;verticalAlign=top;size=9;html=1;" vertex="1" parent="2b4e8129b02d487f-3">
          <mxGeometry x="1007.5" y="47.5" width="20" height="22.5" as="geometry" />
        </mxCell>
        <mxCell id="a6bKHoMYyFH4JnXPZ5UI-52" value="&lt;font style=&quot;font-size: 7px;&quot;&gt;Relatório&lt;/font&gt;" style="text;html=1;align=center;verticalAlign=middle;whiteSpace=wrap;rounded=0;" vertex="1" parent="2b4e8129b02d487f-3">
          <mxGeometry x="980" y="67.5" width="75" height="30" as="geometry" />
        </mxCell>
        <mxCell id="2b4e8129b02d487f-4" value="Alocação de&lt;div&gt;Ativos&lt;/div&gt;" style="swimlane;html=1;startSize=30;horizontal=0;" parent="2b4e8129b02d487f-1" vertex="1">
          <mxGeometry y="260" width="1060" height="120" as="geometry" />
        </mxCell>
        <mxCell id="a6bKHoMYyFH4JnXPZ5UI-18" value="" style="points=[[0.25,0,0],[0.5,0,0],[0.75,0,0],[1,0.25,0],[1,0.5,0],[1,0.75,0],[0.75,1,0],[0.5,1,0],[0.25,1,0],[0,0.75,0],[0,0.5,0],[0,0.25,0]];shape=mxgraph.bpmn.task;whiteSpace=wrap;rectStyle=rounded;size=10;html=1;container=1;expand=0;collapsible=0;taskMarker=abstract;isLoopSub=1;align=center;fillColor=#dae8fc;strokeColor=#6c8ebf;" vertex="1" parent="2b4e8129b02d487f-4">
          <mxGeometry x="380" y="37.5" width="80" height="45" as="geometry" />
        </mxCell>
        <mxCell id="a6bKHoMYyFH4JnXPZ5UI-19" value="&lt;font style=&quot;font-size: 7px;&quot;&gt;Fornecer portifólio com as alocações de ativos&lt;/font&gt;" style="text;html=1;align=center;verticalAlign=middle;whiteSpace=wrap;rounded=0;" vertex="1" parent="a6bKHoMYyFH4JnXPZ5UI-18">
          <mxGeometry x="2.5" width="75" height="30" as="geometry" />
        </mxCell>
        <mxCell id="a6bKHoMYyFH4JnXPZ5UI-25" value="" style="shape=mxgraph.bpmn.data;labelPosition=center;verticalLabelPosition=bottom;align=center;verticalAlign=top;size=9;html=1;" vertex="1" parent="2b4e8129b02d487f-4">
          <mxGeometry x="590" y="60" width="20" height="22.5" as="geometry" />
        </mxCell>
        <mxCell id="a6bKHoMYyFH4JnXPZ5UI-26" value="&lt;font style=&quot;font-size: 7px;&quot;&gt;Portifólio&lt;/font&gt;" style="text;html=1;align=center;verticalAlign=middle;whiteSpace=wrap;rounded=0;" vertex="1" parent="2b4e8129b02d487f-4">
          <mxGeometry x="562.5" y="80" width="75" height="30" as="geometry" />
        </mxCell>
        <mxCell id="a6bKHoMYyFH4JnXPZ5UI-14" value="" style="dashed=1;dashPattern=8 4;endArrow=blockThin;endFill=1;startArrow=oval;startFill=0;endSize=6;startSize=4;html=1;rounded=0;exitX=0.5;exitY=1;exitDx=0;exitDy=0;exitPerimeter=0;entryX=0.5;entryY=0;entryDx=0;entryDy=0;" edge="1" parent="2b4e8129b02d487f-1" source="a6bKHoMYyFH4JnXPZ5UI-9" target="a6bKHoMYyFH4JnXPZ5UI-13">
          <mxGeometry width="160" relative="1" as="geometry">
            <mxPoint x="150" y="113" as="sourcePoint" />
            <mxPoint x="150" y="188" as="targetPoint" />
          </mxGeometry>
        </mxCell>
        <mxCell id="a6bKHoMYyFH4JnXPZ5UI-20" value="" style="dashed=1;dashPattern=8 4;endArrow=blockThin;endFill=1;startArrow=oval;startFill=0;endSize=6;startSize=4;html=1;rounded=0;exitX=0.5;exitY=1;exitDx=0;exitDy=0;exitPerimeter=0;entryX=0.5;entryY=0;entryDx=0;entryDy=0;" edge="1" parent="2b4e8129b02d487f-1" source="a6bKHoMYyFH4JnXPZ5UI-15" target="a6bKHoMYyFH4JnXPZ5UI-19">
          <mxGeometry width="160" relative="1" as="geometry">
            <mxPoint x="310" y="113" as="sourcePoint" />
            <mxPoint x="310" y="188" as="targetPoint" />
          </mxGeometry>
        </mxCell>
        <mxCell id="a6bKHoMYyFH4JnXPZ5UI-23" value="" style="dashed=1;dashPattern=8 4;endArrow=blockThin;endFill=1;startArrow=oval;startFill=0;endSize=6;startSize=4;html=1;rounded=0;exitX=1;exitY=0.5;exitDx=0;exitDy=0;entryX=0;entryY=0.5;entryDx=0;entryDy=0;edgeStyle=orthogonalEdgeStyle;exitPerimeter=0;entryPerimeter=0;" edge="1" parent="2b4e8129b02d487f-1" source="a6bKHoMYyFH4JnXPZ5UI-18" target="a6bKHoMYyFH4JnXPZ5UI-21">
          <mxGeometry width="160" relative="1" as="geometry">
            <mxPoint x="500" y="350" as="sourcePoint" />
            <mxPoint x="582" y="230" as="targetPoint" />
          </mxGeometry>
        </mxCell>
        <mxCell id="a6bKHoMYyFH4JnXPZ5UI-24" value="" style="edgeStyle=orthogonalEdgeStyle;fontSize=12;html=1;endFill=0;startFill=0;endSize=6;startSize=6;dashed=1;dashPattern=1 4;endArrow=openThin;startArrow=none;rounded=0;exitX=1;exitY=0.75;exitDx=0;exitDy=0;exitPerimeter=0;entryX=0.5;entryY=1;entryDx=0;entryDy=0;entryPerimeter=0;" edge="1" parent="2b4e8129b02d487f-1" source="a6bKHoMYyFH4JnXPZ5UI-18" target="a6bKHoMYyFH4JnXPZ5UI-21">
          <mxGeometry width="160" relative="1" as="geometry">
            <mxPoint x="470" y="342.5" as="sourcePoint" />
            <mxPoint x="630" y="342.5" as="targetPoint" />
          </mxGeometry>
        </mxCell>
        <mxCell id="a6bKHoMYyFH4JnXPZ5UI-31" value="" style="dashed=1;dashPattern=8 4;endArrow=blockThin;endFill=1;startArrow=oval;startFill=0;endSize=6;startSize=4;html=1;rounded=0;exitX=0.5;exitY=0;exitDx=0;exitDy=0;entryX=0.5;entryY=1;entryDx=0;entryDy=0;entryPerimeter=0;" edge="1" parent="2b4e8129b02d487f-1" source="a6bKHoMYyFH4JnXPZ5UI-22" target="a6bKHoMYyFH4JnXPZ5UI-27">
          <mxGeometry width="160" relative="1" as="geometry">
            <mxPoint x="430" y="233" as="sourcePoint" />
            <mxPoint x="430" y="308" as="targetPoint" />
          </mxGeometry>
        </mxCell>
        <mxCell id="a6bKHoMYyFH4JnXPZ5UI-34" value="" style="dashed=1;dashPattern=8 4;endArrow=blockThin;endFill=1;startArrow=oval;startFill=0;endSize=6;startSize=4;html=1;rounded=0;exitX=1;exitY=0.5;exitDx=0;exitDy=0;entryX=0.5;entryY=0;entryDx=0;entryDy=0;edgeStyle=orthogonalEdgeStyle;exitPerimeter=0;" edge="1" parent="2b4e8129b02d487f-1" source="a6bKHoMYyFH4JnXPZ5UI-27" target="a6bKHoMYyFH4JnXPZ5UI-33">
          <mxGeometry width="160" relative="1" as="geometry">
            <mxPoint x="710" y="200" as="sourcePoint" />
            <mxPoint x="790" y="80" as="targetPoint" />
          </mxGeometry>
        </mxCell>
        <mxCell id="a6bKHoMYyFH4JnXPZ5UI-49" value="" style="dashed=1;dashPattern=8 4;endArrow=blockThin;endFill=1;startArrow=oval;startFill=0;endSize=6;startSize=4;html=1;rounded=0;exitX=0.5;exitY=0;exitDx=0;exitDy=0;entryX=0;entryY=0.5;entryDx=0;entryDy=0;edgeStyle=orthogonalEdgeStyle;entryPerimeter=0;" edge="1" parent="2b4e8129b02d487f-1" source="a6bKHoMYyFH4JnXPZ5UI-43" target="a6bKHoMYyFH4JnXPZ5UI-47">
          <mxGeometry width="160" relative="1" as="geometry">
            <mxPoint x="630" y="90" as="sourcePoint" />
            <mxPoint x="710" y="188" as="targetPoint" />
          </mxGeometry>
        </mxCell>
        <mxCell id="a6bKHoMYyFH4JnXPZ5UI-50" value="" style="edgeStyle=orthogonalEdgeStyle;fontSize=12;html=1;endFill=0;startFill=0;endSize=6;startSize=6;dashed=1;dashPattern=1 4;endArrow=openThin;startArrow=none;rounded=0;exitX=1;exitY=0.5;exitDx=0;exitDy=0;exitPerimeter=0;entryX=0.5;entryY=1;entryDx=0;entryDy=0;entryPerimeter=0;" edge="1" parent="2b4e8129b02d487f-1" source="a6bKHoMYyFH4JnXPZ5UI-42" target="a6bKHoMYyFH4JnXPZ5UI-47">
          <mxGeometry width="160" relative="1" as="geometry">
            <mxPoint x="920" y="238" as="sourcePoint" />
            <mxPoint x="1040" y="130" as="targetPoint" />
          </mxGeometry>
        </mxCell>
        <mxCell id="a6bKHoMYyFH4JnXPZ5UI-6" value="" style="points=[[0.25,0,0],[0.5,0,0],[0.75,0,0],[1,0.25,0],[1,0.5,0],[1,0.75,0],[0.75,1,0],[0.5,1,0],[0.25,1,0],[0,0.75,0],[0,0.5,0],[0,0.25,0]];shape=mxgraph.bpmn.task;whiteSpace=wrap;rectStyle=rounded;size=10;html=1;container=1;expand=0;collapsible=0;taskMarker=abstract;isLoopSub=1;align=center;fillColor=#dae8fc;strokeColor=#6c8ebf;" vertex="1" parent="1">
          <mxGeometry x="120" y="197.5" width="80" height="45" as="geometry" />
        </mxCell>
        <mxCell id="a6bKHoMYyFH4JnXPZ5UI-7" value="&lt;span style=&quot;font-size: 8px;&quot;&gt;Identificar objetivos do investimento&lt;/span&gt;" style="text;html=1;align=center;verticalAlign=middle;whiteSpace=wrap;rounded=0;" vertex="1" parent="a6bKHoMYyFH4JnXPZ5UI-6">
          <mxGeometry x="2.5" width="75" height="30" as="geometry" />
        </mxCell>
        <mxCell id="a6bKHoMYyFH4JnXPZ5UI-8" value="" style="dashed=1;dashPattern=8 4;endArrow=blockThin;endFill=1;startArrow=oval;startFill=0;endSize=6;startSize=4;html=1;rounded=0;exitX=0.5;exitY=1;exitDx=0;exitDy=0;exitPerimeter=0;entryX=0.5;entryY=0;entryDx=0;entryDy=0;" edge="1" parent="1" source="a6bKHoMYyFH4JnXPZ5UI-2" target="a6bKHoMYyFH4JnXPZ5UI-7">
          <mxGeometry width="160" relative="1" as="geometry">
            <mxPoint x="270" y="150" as="sourcePoint" />
            <mxPoint x="430" y="150" as="targetPoint" />
          </mxGeometry>
        </mxCell>
        <mxCell id="a6bKHoMYyFH4JnXPZ5UI-11" value="" style="dashed=1;dashPattern=8 4;endArrow=blockThin;endFill=1;startArrow=oval;startFill=0;endSize=6;startSize=4;html=1;rounded=0;exitX=1;exitY=0.75;exitDx=0;exitDy=0;entryX=0;entryY=0.75;entryDx=0;entryDy=0;edgeStyle=orthogonalEdgeStyle;" edge="1" parent="1" source="a6bKHoMYyFH4JnXPZ5UI-7" target="a6bKHoMYyFH4JnXPZ5UI-10">
          <mxGeometry width="160" relative="1" as="geometry">
            <mxPoint x="170" y="133" as="sourcePoint" />
            <mxPoint x="170" y="208" as="targetPoint" />
          </mxGeometry>
        </mxCell>
      </root>
    </mxGraphModel>
  </diagram>
</mxfile>
